<?xml version="1.0" encoding="UTF-8"?><svg xmlns="http://www.w3.org/2000/svg" viewBox="0 0 36 36">
 <g id="change1_1"><path d="m7.754 7.754c-3.686 3.686-6.114 8.616-6.911 13.581l13.822 13.822c4.965-0.797 9.895-3.225 13.581-6.911s6.114-8.616 6.911-13.581l-13.822-13.822c-4.965 0.797-9.895 3.225-13.581 6.911zm25.615-5.123c-2.662-1.479-5.735-2.121-8.897-2.067l10.965 10.964c0.053-3.162-0.589-6.235-2.068-8.897zm-30.738 30.738c2.662 1.479 5.736 2.121 8.898 2.067l-10.965-10.964c-0.054 3.161 0.588 6.235 2.067 8.897z" fill="#662113"/></g>
 <g id="change2_1"><path d="m22.828 11.757l-2.414 2.414-0.707-0.707c-0.391-0.391-1.023-0.391-1.414 0s-0.391 1.024 0 1.414l0.707 0.708-3.414 3.414-0.707-0.707c-0.391-0.391-1.023-0.391-1.414 0s-0.391 1.023 0 1.414l0.707 0.707-2.414 2.414-0.707-0.707c-0.391-0.391-1.023-0.391-1.414 0s-0.391 1.024 0 1.414l0.707 0.707-1 1c-0.391 0.392-0.391 1.024 0 1.415s1.023 0.391 1.414 0l1-1 0.707 0.707c0.391 0.391 1.023 0.391 1.414 0 0.391-0.392 0.391-1.024 0-1.414l-0.707-0.707 2.414-2.414 0.707 0.707c0.391 0.392 1.023 0.392 1.414 0 0.391-0.391 0.391-1.024 0-1.414l-0.707-0.708 3.414-3.414 0.707 0.707c0.391 0.391 1.024 0.391 1.414 0 0.391-0.391 0.392-1.023 0-1.414l-0.707-0.707 2.414-2.414 0.707 0.707c0.391 0.391 1.023 0.39 1.414 0 0.391-0.391 0.391-1.023 0-1.414l-0.707-0.707 1-1c0.39-0.391 0.39-1.023 0-1.414-0.391-0.391-1.024-0.391-1.415 0l-1 1-0.707-0.707c-0.39-0.391-1.024-0.391-1.414 0-0.391 0.39-0.391 1.023 0 1.414l0.708 0.706zm-22.264 12.715l10.965 10.965c1.04-0.018 2.088-0.111 3.136-0.279l-13.822-13.823c-0.168 1.049-0.261 2.096-0.279 3.137zm23.908-23.908c-1.04 0.018-2.088 0.111-3.136 0.279l13.822 13.822c0.168-1.049 0.261-2.096 0.279-3.136l-10.965-10.965z" fill="#E1E8ED"/></g>
</svg>